<svg xmlns="http://www.w3.org/2000/svg" viewBox="0 0 32 32"><defs><linearGradient id="g" x1="0" y1="0" x2="1" y2="1"><stop offset="0" stop-color="hsl(173 58% 39%)"/><stop offset="1" stop-color="hsl(173 58% 55%)"/></linearGradient></defs><rect width="32" height="32" rx="9" fill="url(#g)"/><path d="M11 9c-2.4 0-3.5 1.8-3.5 4.2 0 2.7 1 4.7 1.6 7 .35 1.4 1 4.3 2.5 4.3 1.3 0 1.6-2.1 2.4-4 .35-.85.85-1.4 1.5-1.4s1.15.55 1.5 1.4c.8 1.9 1.1 4 2.4 4 1.5 0 2.15-2.9 2.5-4.3.6-2.3 1.6-4.3 1.6-7C23.5 10.8 22.4 9 20 9c-1.4 0-2.5.6-4 .6S12.4 9 11 9z" fill="white"/></svg>
